<?xml version="1.0" standalone="no"?>
<!DOCTYPE svg PUBLIC "-//W3C//DTD SVG 20010904//EN"
 "http://www.w3.org/TR/2001/REC-SVG-20010904/DTD/svg10.dtd">
<svg version="1.0" xmlns="http://www.w3.org/2000/svg"
 width="300.000000pt" height="261.000000pt" viewBox="0 0 300.000000 261.000000"
 preserveAspectRatio="xMidYMid meet">
<metadata>
Created by potrace 1.10, written by Peter Selinger 2001-2011
</metadata>
<g transform="translate(0.000000,261.000000) scale(0.100000,-0.100000)"
fill="aqua" stroke="none">
<path d="M893 2603 c9 -2 23 -2 30 0 6 3 -1 5 -18 5 -16 0 -22 -2 -12 -5z"/>
<path d="M945 2600 c2 -4 33 -15 67 -25 35 -9 82 -28 106 -41 23 -13 49 -24
57 -24 8 0 15 -3 15 -7 0 -5 18 -17 40 -27 22 -10 48 -27 59 -37 11 -11 24
-19 28 -19 8 -1 69 -52 123 -103 48 -46 63 -49 97 -19 16 15 46 41 67 57 20
17 53 45 74 62 20 18 40 33 44 33 3 0 30 16 60 35 29 20 64 38 78 42 14 3 32
11 40 18 8 6 40 19 70 29 65 20 101 40 55 31 -146 -30 -328 -134 -476 -272
l-47 -44 -64 57 c-85 76 -237 176 -323 213 -68 28 -179 55 -170 41z"/>
<path d="M2185 2584 c114 -60 162 -143 190 -326 17 -110 12 -182 -21 -366 -8
-45 -12 -91 -9 -101 4 -12 22 -23 53 -30 90 -23 314 -128 367 -173 113 -96
159 -157 179 -236 11 -40 10 -56 -5 -104 -31 -104 -113 -192 -264 -283 -50
-31 -197 -97 -245 -110 -58 -16 -91 -36 -86 -53 21 -66 39 -225 39 -337 0
-237 -60 -369 -196 -434 -55 -27 -57 -35 -4 -20 91 25 171 129 203 264 22 94
21 291 -1 415 -10 52 -18 101 -19 108 0 9 34 26 89 46 327 119 529 309 512
482 -17 168 -216 337 -515 437 l-97 33 17 84 c39 186 34 412 -12 531 -38 102
-113 176 -195 193 -23 5 -19 0 20 -20z"/>
<path d="M769 2577 c-57 -30 -111 -103 -139 -186 -34 -100 -39 -288 -12 -447
12 -67 22 -127 24 -133 2 -7 -36 -26 -92 -45 -371 -128 -570 -339 -505 -535
24 -73 91 -159 171 -220 82 -62 249 -147 355 -180 l75 -24 -18 -81 c-25 -107
-34 -331 -19 -421 29 -169 118 -282 236 -299 22 -3 33 -3 25 1 -54 22 -118 55
-135 70 -41 37 -78 108 -99 193 -18 76 -20 105 -15 221 4 74 15 176 25 226 10
51 15 95 12 98 -3 4 -39 18 -79 31 -232 79 -433 219 -502 348 -31 58 -30 164
2 226 21 41 164 190 183 190 5 0 31 16 59 35 28 19 57 35 65 35 7 0 28 8 46
18 37 21 151 62 172 62 8 0 24 8 36 18 l23 19 -23 137 c-28 172 -25 352 9 457
26 82 82 149 154 183 34 16 45 25 31 25 -11 1 -41 -9 -65 -22z"/>
<path d="M816 2472 c-21 -15 -44 -36 -50 -47 -6 -11 -13 -22 -16 -25 -6 -6 -9
-17 -24 -90 -25 -122 -2 -432 37 -484 11 -14 20 -14 107 4 52 11 141 25 198
32 l103 12 42 56 c23 30 48 62 57 71 8 9 24 29 35 45 11 15 27 35 35 44 8 8
32 35 52 60 l36 45 -33 36 c-48 53 -178 149 -267 197 -43 23 -79 42 -80 41 -2
-1 -28 6 -60 15 -81 23 -126 20 -172 -12z m175 -8 c107 -32 257 -122 371 -223
l47 -42 -86 -102 c-47 -56 -102 -125 -122 -153 l-36 -52 -95 -12 c-52 -6 -140
-20 -194 -31 -55 -10 -101 -18 -102 -16 -9 9 -36 191 -41 277 -11 194 34 333
117 363 29 11 87 7 141 -9z"/>
<path d="M1985 2481 c-104 -37 -215 -105 -315 -190 -71 -61 -89 -81 -90 -96 0
-10 20 -35 77 -100 15 -16 56 -68 91 -115 35 -47 74 -90 86 -96 11 -6 59 -17
106 -23 47 -7 129 -21 184 -32 68 -14 102 -17 110 -9 29 23 61 259 53 387 -10
141 -49 237 -113 274 -38 23 -125 23 -189 0z m205 -39 c59 -59 75 -125 74
-302 -1 -122 -21 -291 -37 -306 -2 -2 -48 5 -103 15 -54 11 -142 25 -194 31
l-95 12 -48 67 c-26 37 -81 106 -121 153 l-75 86 57 49 c180 156 327 231 451
232 49 1 57 -2 91 -37z"/>
<path d="M1434 2054 c-27 -31 -54 -61 -59 -67 -6 -7 -21 -27 -34 -45 -38 -54
-24 -60 158 -61 190 -1 199 4 153 71 -49 71 -133 158 -152 158 -9 0 -39 -25
-66 -56z m137 -31 c35 -42 72 -87 81 -98 l17 -21 -169 0 -169 0 47 56 c26 30
63 74 82 98 19 23 38 42 41 42 4 0 35 -35 70 -77z"/>
<path d="M1235 1779 c-18 -9 -52 -53 -81 -104 -6 -11 -29 -50 -52 -87 -23 -37
-66 -115 -96 -173 -48 -92 -54 -109 -45 -133 6 -14 15 -32 21 -39 6 -7 8 -13
5 -13 -16 0 216 -380 241 -394 9 -6 46 -11 82 -12 107 -3 312 -3 355 0 22 1
45 -1 51 -6 7 -5 23 -3 38 3 30 14 60 57 170 242 31 53 125 231 126 240 2 31
-238 443 -277 474 -19 14 -507 16 -538 2z m548 -41 c55 -74 247 -411 247 -434
0 -14 -130 -248 -200 -361 l-64 -103 -266 0 -266 0 -81 133 c-45 72 -105 177
-134 231 l-53 100 45 85 c51 100 193 338 216 364 15 15 41 17 274 17 l258 0
24 -32z"/>
<path d="M1413 1557 c-145 -54 -214 -213 -153 -356 25 -56 83 -115 139 -139
47 -20 155 -20 202 0 218 94 210 415 -11 493 -50 18 -132 18 -177 2z m244 -64
c149 -122 97 -364 -90 -418 -66 -19 -104 -16 -167 12 -70 31 -137 113 -140
169 -3 71 4 125 21 162 21 43 95 112 121 112 7 0 18 4 24 9 15 15 95 17 142 4
23 -7 63 -29 89 -50z"/>
<path d="M892 1740 c-81 -17 -115 -30 -76 -30 32 0 234 37 241 44 12 11 -80 4
-165 -14z"/>
<path d="M1925 1749 c-4 -6 9 -36 28 -67 36 -59 65 -110 101 -175 26 -49 49
-62 68 -39 21 25 88 220 81 237 -6 17 -11 18 -128 40 -94 18 -141 19 -150 4z
m150 -24 c55 -10 104 -21 108 -25 4 -4 -11 -60 -35 -124 -27 -74 -46 -112 -51
-104 -139 231 -163 277 -143 273 11 -2 66 -11 121 -20z"/>
<path d="M1037 1699 c-53 -83 -127 -217 -127 -229 0 -31 -22 11 -55 107 -38
107 -55 142 -55 112 0 -47 80 -234 99 -234 8 0 26 20 41 45 15 25 53 89 85
143 61 102 71 148 12 56z"/>
<path d="M560 1650 c-100 -36 -162 -65 -204 -92 -202 -135 -245 -218 -179
-340 14 -26 40 -60 57 -75 37 -34 159 -116 219 -147 59 -32 211 -80 229 -74 8
3 33 57 55 120 23 62 56 147 74 190 l32 76 -36 85 c-21 47 -51 125 -68 174
-28 80 -52 124 -68 122 -3 0 -53 -17 -111 -39z m154 -68 c16 -48 46 -127 67
-177 22 -49 39 -94 39 -100 0 -5 -16 -46 -35 -91 -20 -46 -49 -122 -66 -171
-16 -48 -32 -94 -34 -100 -5 -16 -151 34 -249 85 -148 77 -238 161 -266 245
-10 33 -10 45 5 83 22 59 120 147 225 203 74 39 249 110 275 110 6 0 23 -39
39 -87z"/>
<path d="M2305 1666 c-8 -12 -21 -42 -29 -67 -18 -55 -48 -133 -69 -179 -51
-112 -51 -103 -9 -204 22 -50 56 -135 76 -188 43 -113 42 -113 152 -73 38 14
70 25 72 25 1 0 30 14 65 32 34 18 64 32 67 33 3 0 40 27 83 60 79 61 132 129
143 185 12 58 -46 146 -141 216 -22 16 -42 31 -45 34 -13 15 -195 96 -268 120
l-83 28 -14 -22z m204 -65 c163 -71 286 -167 317 -247 14 -38 15 -51 5 -86
-17 -56 -105 -142 -206 -201 -69 -41 -268 -127 -292 -127 -5 0 -17 24 -27 53
-10 28 -42 111 -72 184 l-55 132 32 73 c25 58 69 176 104 275 5 16 75 -4 194
-56z"/>
<path d="M2088 1153 c-17 -21 -88 -138 -88 -146 0 -3 -19 -36 -42 -72 -35 -56
-39 -68 -27 -80 11 -10 27 -11 69 -5 131 21 182 31 200 42 17 11 17 13 -1 67
-29 84 -71 184 -84 199 -9 10 -14 9 -27 -5z m67 -128 c25 -65 44 -120 42 -121
-2 -2 -245 -44 -258 -44 -5 0 6 24 25 53 18 28 57 94 86 145 28 51 54 92 56
89 2 -2 24 -57 49 -122z"/>
<path d="M870 1123 c-7 -15 -28 -71 -46 -123 -39 -109 -37 -114 41 -129 28 -6
61 -13 75 -16 46 -9 121 -8 131 2 7 7 -11 49 -60 134 -39 68 -75 131 -80 139
-15 27 -46 23 -61 -7z m69 -45 c19 -35 56 -98 82 -140 38 -61 44 -78 31 -78
-27 0 -232 37 -238 42 -2 3 12 50 31 104 20 55 39 107 42 117 9 27 16 21 52
-45z"/>
<path d="M2180 788 c-25 -4 -67 -13 -95 -19 -27 -6 -75 -13 -105 -16 -30 -2
-70 -8 -89 -13 -19 -5 -37 -7 -41 -5 -9 5 -49 -39 -110 -120 -25 -33 -71 -90
-102 -128 -32 -37 -58 -72 -58 -76 0 -5 17 -24 37 -43 20 -18 48 -44 62 -58
41 -40 149 -108 240 -152 76 -37 91 -41 166 -42 82 -1 84 0 115 32 18 19 43
59 57 89 36 78 44 281 18 431 -21 120 -31 132 -95 120z m73 -99 c14 -65 17
-118 14 -239 -4 -172 -19 -230 -77 -285 -91 -87 -315 -3 -555 207 l-40 35 58
67 c31 37 86 107 122 155 l65 87 158 22 c87 13 171 27 188 31 16 5 34 8 39 7
6 -1 18 -40 28 -87z"/>
<path d="M761 776 c-25 -30 -51 -228 -47 -354 5 -153 38 -245 103 -287 32 -22
123 -28 178 -14 44 12 208 90 213 102 2 4 10 7 17 7 7 0 15 4 17 8 2 5 23 22
48 39 45 31 140 120 140 132 0 3 -33 45 -73 92 -39 47 -97 118 -127 158 -30
39 -64 74 -75 76 -11 2 -69 9 -130 15 -60 6 -123 15 -140 20 -68 20 -111 22
-124 6z m214 -36 c72 -11 144 -20 160 -20 25 0 36 -9 66 -53 21 -28 76 -99
124 -157 l88 -104 -54 -48 c-76 -68 -173 -132 -276 -181 -79 -38 -95 -42 -165
-42 -68 0 -79 3 -103 25 -90 83 -110 290 -55 555 l12 57 36 -6 c21 -4 96 -15
167 -26z"/>
<path d="M1333 723 c-7 -3 -13 -10 -13 -15 0 -14 73 -110 123 -161 20 -22 37
-43 37 -48 0 -25 42 -3 81 42 24 27 56 64 71 81 31 36 54 86 44 96 -8 7 -323
12 -343 5z m310 -52 c-15 -20 -52 -66 -82 -103 l-56 -68 -25 30 c-14 16 -53
62 -86 102 l-61 73 168 1 168 0 -26 -35z"/>
<path d="M1452 293 c-22 -21 -52 -47 -66 -58 -15 -11 -35 -28 -44 -37 -9 -10
-20 -18 -25 -18 -5 0 -31 -16 -57 -35 -53 -39 -144 -83 -230 -110 -79 -25 -84
-37 -9 -19 121 28 299 131 421 244 l63 58 59 -55 c127 -118 329 -235 426 -248
l45 -5 -40 16 c-22 8 -44 17 -50 18 -84 21 -273 142 -389 250 -22 20 -45 36
-52 36 -6 0 -30 -17 -52 -37z"/>
</g>
</svg>
